<svg width="47" height="39" viewBox="0 0 47 39" fill="none" xmlns="http://www.w3.org/2000/svg">
<path d="M11.4502 20.4046V14.0424H15.702V7.68028H19.9537V1H26.4731" stroke="#A9966D" stroke-width="2" stroke-linecap="round"/>
<path d="M35.2368 20.4046V14.0424H30.985V7.68028H26.7333V1H20.2139" stroke="#A9966D" stroke-width="2" stroke-linecap="round"/>
<path d="M11.1374 31.6718C14.3924 31.6718 16.8753 28.542 17.71 26.9771L23.3436 14.771L28.9772 27.6031C29.9161 28.9593 32.4199 31.6718 34.9237 31.6718M18.6489 23.2214C16.0407 23.0127 10.1985 23.9099 7.69467 29.168C4.56489 35.7405 6.44276 32.9237 3 36.9924C11.7634 36.3665 4.25191 36.9924 12.7023 36.3665C19.4626 35.8657 22.6133 30.3156 23.3436 27.6031" stroke="#246C39" stroke-width="2" stroke-linecap="round"/>
<path d="M35.703 31.9098C32.3842 31.9098 29.8526 28.736 29.0016 27.149L23.2576 14.771L17.5135 27.7838C16.5561 29.1592 14.0032 31.9098 11.4503 31.9098M28.0443 23.3404C30.7036 23.1288 36.6604 24.0387 39.2133 29.3707C42.4044 36.0358 40.4897 33.1794 44 37.3054C35.0648 36.6706 42.7235 37.3054 34.1074 36.6706C27.2146 36.1628 24.0022 30.5345 23.2576 27.7838" stroke="#246C39" stroke-width="2" stroke-linecap="round"/>
</svg>
